<?xml version="1.0" encoding="utf-8"?>
<!-- Generator: Adobe Illustrator 25.2.1, SVG Export Plug-In . SVG Version: 6.00 Build 0)  -->
<svg version="1.1" id="Layer_1" xmlns="http://www.w3.org/2000/svg" xmlns:xlink="http://www.w3.org/1999/xlink" x="0px" y="0px"
	 width="20px" height="20px" viewBox="0 0 20 20" style="enable-background:new 0 0 20 20;" xml:space="preserve">
<style type="text/css">
	.st0{fill-rule:evenodd;clip-rule:evenodd;fill:#34E2AC;}
</style>
<g id="UiCore">
	<g id="Artboard" transform="translate(-582.000000, -1271.000000)">
		<path id="Combined-Shape" class="st0" d="M598.1,1273.1c0.7,0,0.9,0.1,1.1,0.2c0.2,0.1,0.5,0.3,0.6,0.6s0.2,0.5,0.2,1.1v12.2
			c0,0.7-0.1,0.9-0.2,1.1c-0.1,0.2-0.3,0.5-0.6,0.6c-0.2,0.1-0.5,0.2-1.1,0.2h-12.2c-0.7,0-0.9-0.1-1.1-0.2
			c-0.2-0.1-0.5-0.3-0.6-0.6s-0.2-0.5-0.2-1.1V1275c0-0.7,0.1-0.9,0.2-1.1c0.1-0.2,0.3-0.5,0.6-0.6c0.2-0.1,0.5-0.2,1.1-0.2
			L598.1,1273.1L598.1,1273.1z M594.6,1275.9c-0.1-0.1-0.3-0.1-0.6,0l0,0l-4.5,2.8l0,0c-0.6,0.3-0.7,1.1-0.3,1.7l0,0l0,0
			c0.1,0.1,0.2,0.3,0.5,0.3l0,0l1.5,0.8l-1.9,3.4l0,0c-0.1,0.2,0,0.6,0.2,0.7c0.1,0.1,0.3,0.1,0.6,0l0,0l4.5-2.8l0,0
			c0.6-0.3,0.7-1.1,0.3-1.7l0,0l0,0c-0.1-0.1-0.2-0.3-0.5-0.3l0,0l-1.5-0.8l1.9-3.4l0,0C594.9,1276.4,594.8,1276.1,594.6,1275.9z"/>
	</g>
</g>
</svg>
