<?xml version="1.0" encoding="UTF-8"?>
<svg width="53" height="18" viewBox="0 0 53 18" fill="none" xmlns="http://www.w3.org/2000/svg">
<path fill-rule="evenodd" clip-rule="evenodd" d="M10.89 8.5725C11.61 8.97751 12.165 9.52125 12.555 10.2038C12.945 10.8863 13.14 11.61 13.14 12.375C13.14 13.11 13.0088 13.7775 12.7463 14.3775C12.4837 14.9775 12.1275 15.4875 11.6775 15.9075C11.2275 16.3275 10.6988 16.6538 10.0913 16.8863C9.48375 17.1188 8.835 17.235 8.145 17.235H0V1.035H7.2C7.935 1.035 8.61375 1.155 9.23625 1.395C9.85875 1.635 10.395 1.96875 10.845 2.39625C11.295 2.82376 11.6475 3.33375 11.9025 3.92625C12.1575 4.51876 12.285 5.175 12.285 5.895C12.285 6.42001 12.1613 6.91875 11.9137 7.39125C11.6662 7.86376 11.325 8.2575 10.89 8.5725ZM3.6 7.335H7.11C7.56 7.335 7.9425 7.18876 8.2575 6.89625C8.5725 6.60375 8.73 6.23251 8.73 5.7825C8.73 5.3325 8.5725 4.96876 8.2575 4.69125C7.9425 4.41375 7.56 4.275 7.11 4.275H3.6V7.335ZM9.1125 13.4663C8.7975 13.8188 8.415 13.995 7.965 13.995H3.6V10.485H7.965C8.415 10.485 8.7975 10.6688 9.1125 11.0363C9.4275 11.4038 9.585 11.8125 9.585 12.2625C9.585 12.7125 9.4275 13.1138 9.1125 13.4663Z" fill="white"/>
<path d="M14.7148 11.16C14.7148 10.275 14.8686 9.44251 15.1761 8.66251C15.4836 7.8825 15.9148 7.20001 16.4698 6.61501C17.0248 6.03 17.6886 5.56876 18.4611 5.23126C19.2336 4.89375 20.0848 4.72501 21.0148 4.72501H21.4648V7.78501C20.9998 7.78501 20.5611 7.87501 20.1486 8.05501C19.7361 8.23501 19.3798 8.47501 19.0798 8.77501C18.7798 9.07501 18.5398 9.43125 18.3598 9.84376C18.1798 10.2563 18.0898 10.695 18.0898 11.16V17.235H14.7148V11.16Z" fill="white"/>
<path d="M23.1299 5.08499H26.5049V17.235H23.1299V5.08499Z" fill="white"/>
<path d="M24.8178 0C25.0878 0 25.3391 0.0524995 25.5716 0.1575C25.8041 0.262501 26.0066 0.401249 26.1791 0.57375C26.3516 0.746251 26.4903 0.948749 26.5953 1.18125C26.7003 1.41375 26.7528 1.665 26.7528 1.935C26.7528 2.205 26.7003 2.45625 26.5953 2.68875C26.4903 2.92125 26.3516 3.1275 26.1791 3.3075C26.0066 3.4875 25.8041 3.62625 25.5716 3.72375C25.3391 3.82125 25.0878 3.87 24.8178 3.87C24.2778 3.87 23.8203 3.6825 23.4453 3.3075C23.0703 2.9325 22.8828 2.475 22.8828 1.935C22.8828 1.665 22.9316 1.41375 23.0291 1.18125C23.1266 0.948749 23.2653 0.746251 23.4453 0.57375C23.6253 0.401249 23.8316 0.262501 24.0641 0.1575C24.2966 0.0524995 24.5478 0 24.8178 0Z" fill="white"/>
<path d="M34.7629 10.08C35.2129 10.125 35.6516 10.2338 36.0791 10.4063C36.5066 10.5788 36.8891 10.8038 37.2266 11.0813C37.5641 11.3588 37.8379 11.6963 38.0479 12.0938C38.2579 12.4913 38.3629 12.945 38.3629 13.455C38.3629 14.115 38.2279 14.7 37.9579 15.21C37.6879 15.72 37.3241 16.1513 36.8666 16.5038C36.4091 16.8563 35.8804 17.1263 35.2804 17.3138C34.6804 17.5013 34.0579 17.595 33.4129 17.595C32.7529 17.595 32.1266 17.5013 31.5341 17.3138C30.9416 17.1263 30.4166 16.8563 29.9591 16.5038C29.5016 16.1513 29.1379 15.72 28.8679 15.21C28.5979 14.7 28.4629 14.115 28.4629 13.455H31.8379C31.8379 13.71 31.8866 13.9238 31.9841 14.0963C32.0816 14.2688 32.2054 14.4038 32.3554 14.5013C32.5054 14.5988 32.6741 14.6663 32.8616 14.7038C33.0491 14.7413 33.2329 14.76 33.4129 14.76C33.7879 14.76 34.1441 14.6625 34.4816 14.4675C34.8191 14.2725 34.9879 13.98 34.9879 13.59C34.9879 13.305 34.8229 13.05 34.4929 12.825C34.1629 12.6 33.7429 12.45 33.2329 12.375C32.6479 12.3 32.0741 12.1575 31.5116 11.9475C30.9491 11.7375 30.4541 11.475 30.0266 11.16C29.5991 10.845 29.2541 10.4813 28.9916 10.0688C28.7291 9.65625 28.5979 9.21001 28.5979 8.73001C28.5979 8.115 28.7254 7.56001 28.9804 7.06501C29.2354 6.57 29.5841 6.15001 30.0266 5.80501C30.4691 5.46 30.9791 5.19376 31.5566 5.00626C32.1341 4.81876 32.7529 4.72501 33.4129 4.72501C34.0579 4.72501 34.6729 4.81876 35.2579 5.00626C35.8429 5.19376 36.3566 5.46375 36.7991 5.81626C37.2416 6.16876 37.5904 6.60375 37.8454 7.12126C38.1004 7.63876 38.2279 8.22 38.2279 8.86501H34.8529C34.8529 8.355 34.7066 8.01001 34.4141 7.83001C34.1216 7.65001 33.7879 7.56001 33.4129 7.56001C33.0379 7.56001 32.7041 7.63876 32.4116 7.79626C32.1191 7.95376 31.9729 8.235 31.9729 8.64001C31.9729 8.82001 32.0554 8.98876 32.2204 9.14626C32.3854 9.30376 32.6029 9.44626 32.8729 9.57376C33.1429 9.70126 33.4429 9.80626 33.7729 9.88876C34.1029 9.97126 34.4329 10.035 34.7629 10.08Z" fill="white"/>
<path d="M51.4572 5.085L46.9797 10.26L52.5147 17.235H48.4197L43.4922 10.8225V17.235H40.1172V1.035H43.4922V9.7425L47.4072 5.085H51.4572Z" fill="white"/>
</svg>
